<?xml version="1.0" encoding="utf-8"?>
<svg xmlns="http://www.w3.org/2000/svg" height="256" width="256" viewBox="0 0 256 256">
    <g>
        <path id="path1" transform="rotate(0,128,128) translate(10,28.5554914474487) scale(7.375,7.375)  " fill="#FCFCFC" d="M11,7.0620072C5.849,7.0620072 2,8.9090068 2,10.562006 2,11.366006 2.9489999,12.056005 3.5149999,12.397006 3.816,12.577005 4,12.903005 4,13.254005L4,24.968002 18,24.968002 18,20.906002 18,13.254005C18,12.903005 18.184,12.577005 18.485,12.397006 19.051,12.056005 20,11.366006 20,10.562006 20,8.9090068 16.151,7.0620072 11,7.0620072z M21,2C16.331905,1.9999998,12.733131,3.516933,12.099389,5.0316627L12.078293,5.08652 12.156964,5.0893223C17.843652,5.360523 22,7.6220071 22,10.562006 22,11.421006 21.639,12.648005 20,13.797005L20,19.906002 28,19.906002 28,8.1920145C28,7.8410018 28.183998,7.515013 28.485001,7.3349898 29.050999,6.9940169 30,6.3040149 30,5.4999988 30,3.8470147 26.151001,1.9999998 21,2z M21,0C27.271,2.3466418E-07 32,2.3640134 32,5.4999988 32,6.3590076 31.639,7.5859969 30,8.7350137L30,20.906002C30,21.458004,29.551998,21.906002,29,21.906002L20,21.906002 20,25.968002C20,26.520002,19.552,26.968002,19,26.968002L3,26.968002C2.448,26.968002,2,26.520002,2,25.968002L2,13.797005C0.36100006,12.648005 0,11.421006 0,10.562006 0,7.6220071 4.1563478,5.360523 9.8430357,5.0893223L10.028655,5.08271 10.030844,5.0642536C10.446732,2.1475816,15.022953,2.3466418E-07,21,0z" />
    </g>
</svg>

