<?xml version="1.0" encoding="utf-8"?>
<svg xmlns="http://www.w3.org/2000/svg" height="256" width="256" viewBox="0 0 256 256">
    <g>
        <path id="path1" transform="rotate(0,128,128) translate(54.2684315561088,10) scale(7.37315684438912,7.37315684438912)  " fill="#FCFCFC" d="M9.8559858,27.009449L9.6899844,27.011208C6.6062385,27.076914 4.9929973,28.134062 4.9929973,28.507999 4.9929973,28.893999 6.7119971,30.007999 9.9929973,30.007999 13.273997,30.007999 14.992997,28.893999 14.992997,28.507999 14.992997,28.134062 13.379756,27.076914 10.29601,27.011208L10.143107,27.009588 10.102198,27.015839C10.068594,27.019253 10.0345,27.021004 10,27.021004 9.9655,27.021004 9.9314061,27.019253 9.8978025,27.015839z M10.030161,11.021004L12.106008,11.021004 10.482127,16.837007C10.359137,17.279007 9.9571658,17.568007 9.5191985,17.568007 9.4312049,17.568007 9.340212,17.556006 9.2502185,17.531007 8.718258,17.382007 8.407281,16.831006 8.5562698,16.299006z M1.9999996,10.021004L1.9999996,12.021004C2.0000001,16.431999 5.5890046,20.021004 10,20.021004 14.410996,20.021004 18,16.431999 18,12.021004L18,10.021004z M1.0000001,8.0210037L19,8.0210037C19.552002,8.0210037,20,8.4690018,20,9.0210037L20,12.021004C20,17.190386,16.057234,21.456239,11.020986,21.969277L11,21.971147 11,25.041912 11.292632,25.064137C14.297232,25.325624 16.992998,26.49725 16.992998,28.507999 16.992998,30.806 13.471997,32.007999 9.9929973,32.007999 6.5139972,32.007999 2.9929973,30.806 2.992997,28.507999 2.9929973,26.49725 5.6887628,25.325624 8.6933624,25.064137L9.0000001,25.040848 9.0000001,21.971147 8.9790145,21.969277C3.9427668,21.456239,1.1408137E-07,17.190386,0,12.021004L0,9.0210037C1.1744655E-07,8.4690018,0.44799816,8.0210037,1.0000001,8.0210037z M17.491289,0.00022602081C17.916998,0.0093288422 18.307184,0.29287767 18.430679,0.72429466 18.583672,1.2552695 18.276686,1.8082433 17.745709,1.961236L14.36686,2.9321899 13.22391,7.0209969 11.148004,7.0209969 12.589939,1.8562407C12.683935,1.5212569,12.943923,1.2602692,13.277908,1.1642737L17.193733,0.039326668C17.292915,0.010641098,17.393049,-0.00187397,17.491289,0.00022602081z" />
    </g>
</svg>

