<?xml version="1.0" encoding="utf-8"?>
<svg xmlns="http://www.w3.org/2000/svg" height="256" width="256" viewBox="0 0 256 256">
    <g>
        <path id="path1" transform="rotate(0,128,128) translate(46.875,10) scale(7.375,7.375)  " fill="#FCFCFC" d="M6.0250669,21.304045L6.0258632,21.314482C6.282383,23.832603 8.4153128,25.803989 11,25.803989 13.584687,25.803989 15.717617,23.832603 15.974136,21.314482L15.974933,21.304045z M11,15.803989C8.4153128,15.803989,6.282383,17.775376,6.0258632,20.293497L6.0250587,20.304045 15.974941,20.304045 15.974136,20.293497C15.717617,17.775376,13.584687,15.803989,11,15.803989z M11,14.803989C14.309,14.803989 17,17.494989 17,20.803989 17,24.112989 14.309,26.803989 11,26.803989 7.691,26.803989 5,24.112989 5,20.803989 5,17.494989 7.691,14.803989 11,14.803989z M2,12L2,30 20,30 20,12z M10.466998,4.496006C11.294998,4.496006 11.966998,5.1680064 11.966998,5.996006 11.966998,6.8240063 11.294998,7.4960063 10.466998,7.496006 9.638998,7.4960063 8.9669981,6.8240063 8.9669981,5.996006 8.9669981,5.1680064 9.638998,4.496006 10.466998,4.496006z M5.6690054,4.496006C6.4970055,4.496006 7.1690054,5.1680064 7.1690054,5.996006 7.1690054,6.8240063 6.4970055,7.4960063 5.6690054,7.496006 4.8410053,7.4960063 4.1690054,6.8240063 4.1690054,5.996006 4.1690054,5.1680064 4.8410053,4.496006 5.6690054,4.496006z M2,2L2,10 20,10 20,2z M0,0L22,0 22,32 0,32z" />
    </g>
</svg>
